PathFileType  4	(X/Y/Z) C:\Users\antoi\Documents\MyRepositories\mobilecap\ResultsAnalysis
DataRate	CameraRate	NumFrames	NumMarkers	Units	OrigDataRate	OrigDataStartFrame	OrigNumFrames
100.0	100.0	4	51	mm	100.0	1	132
Frame#	Time	r_knee			r_shank_antsup			r_ankle			r_calc			r_5meta			r_toe			L_knee			L_shank_antsup			L_ankle			L_calc			L_5meta			L_toe			r_sh2			r_sh3			r_sh4			L_sh2			L_sh3			r_thigh1			r_thigh2			r_thigh3			r_thigh4			r_thigh5			L_thigh1			L_thigh2			L_thigh3			L_thigh4			r.ASIS			r.PSIS			L.ASIS			L.PSIS			C7			R_Shoulder			L_Shoulder			R_Sternum			L_Sternum			R_humerus			R_elbow_med			R_elbow_lat			R_forearm			R_wrist_radius			R_wrist_ulna			L_humerus			L_elbow_med			L_elbow_lat			L_forearm			L_wrist_radius			L_wrist_ulna			R_HJC			L_HJC			R_HJC_reg			L_HJC_reg			
		X1	Y1	Z1	X2	Y2	Z2	X3	Y3	Z3	X4	Y4	Z4	X5	Y5	Z5	X6	Y6	Z6	X7	Y7	Z7	X8	Y8	Z8	X9	Y9	Z9	X10	Y10	Z10	X11	Y11	Z11	X12	Y12	Z12	X13	Y13	Z13	X14	Y14	Z14	X15	Y15	Z15	X16	Y16	Z16	X17	Y17	Z17	X18	Y18	Z18	X19	Y19	Z19	X20	Y20	Z20	X21	Y21	Z21	X22	Y22	Z22	X23	Y23	Z23	X24	Y24	Z24	X25	Y25	Z25	X26	Y26	Z26	X27	Y27	Z27	X28	Y28	Z28	X29	Y29	Z29	X30	Y30	Z30	X31	Y31	Z31	X32	Y32	Z32	X33	Y33	Z33	X34	Y34	Z34	X35	Y35	Z35	X36	Y36	Z36	X37	Y37	Z37	X38	Y38	Z38	X39	Y39	Z39	X40	Y40	Z40	X41	Y41	Z41	X42	Y42	Z42	X43	Y43	Z43	X44	Y44	Z44	X45	Y45	Z45	X46	Y46	Z46	X47	Y47	Z47	X48	Y48	Z48	X49	Y49	Z49	X50	Y50	Z50	X51	Y51	Z51	

1	0.00000000	-32.94927	455.24592	-133.34425	48.66168	373.82640	-152.69899	102.79409	97.44065	-193.69602	82.66655	45.89917	-250.87632	228.95879	100.79121	-161.69315	250.60153	143.57510	-196.74731	-315.62829	459.08575	-424.22182	-307.84169	349.65833	-375.04753	-478.73429	96.54424	-364.06611	-532.36848	69.00999	-314.00856	-369.95161	34.11030	-371.60761	-328.84450	49.18375	-319.17936	85.14053	269.04921	-173.73581	-7.99232	343.75636	-110.98843	13.52473	237.20313	-143.18105	-354.00244	379.16728	-443.15513	-402.75826	268.33388	-443.54360	-76.49472	761.79055	-127.95353	-28.52835	663.04632	-128.84202	-61.79683	619.50274	-85.53159	-173.61477	714.63731	-83.03578	-118.15939	610.85109	-85.45126	-161.09046	725.25011	-449.62140	-188.08500	591.45729	-436.63206	-266.27408	747.04655	-481.64354	-295.51805	611.60410	-462.37955	-99.50478	900.31333	-162.33925	-286.03054	941.29308	-219.03969	-99.32135	900.90369	-405.78062	-289.52829	951.98858	-334.70533	-248.47677	1400.03449	-275.74445	-213.82448	1361.64529	-120.57500	-169.03497	1379.73556	-424.14536	-125.21964	1346.35390	-243.84875	-119.71193	1345.38290	-287.28624	-227.43948	1233.79232	-55.16989	-319.70805	1053.51259	-131.10581	-320.62882	1061.67414	-55.18179	-317.26892	939.07863	-20.77377	-329.68891	834.03744	-11.76100	-365.74106	844.95266	-7.08905	-114.05152	1247.64953	-494.59813	-130.43033	1039.18828	-475.24091	-116.55580	1062.80442	-542.49248	-22.83171	1018.99046	-557.01909	82.25306	943.74700	-542.11535	66.00174	921.90614	-560.27317	-190.11769	828.29856	-184.53843	-190.25214	829.27718	-373.91148	-168.07811	820.92149	-201.30248	-172.91403	835.70903	-361.21867	
2	0.01000000	-17.90956	454.11485	-134.88412	61.51742	370.22731	-154.73072	109.23793	93.74184	-195.83376	87.08127	44.72098	-253.29241	234.61519	93.47508	-163.14989	258.57476	134.95774	-198.12938	-305.05004	458.12845	-423.06344	-299.68084	348.07736	-374.38842	-476.76692	99.17596	-364.49983	-531.09614	72.83163	-314.64919	-369.67024	34.06424	-371.50921	-327.95219	48.36529	-319.29337	95.81652	264.94171	-176.15847	4.98127	341.28609	-112.33284	23.80284	234.39894	-144.68727	-345.04654	379.18804	-442.20673	-396.78032	269.76878	-443.11397	-61.29900	760.91884	-125.39799	-13.26780	662.06179	-127.23640	-46.81958	617.93349	-85.11085	-159.05119	713.45117	-82.61198	-103.31322	609.30555	-85.72058	-148.17089	723.15757	-448.84143	-176.28135	589.25600	-435.76208	-253.45615	745.56062	-480.32028	-283.71935	610.35667	-460.68057	-84.10888	899.35946	-161.48720	-271.31493	939.91966	-218.66462	-85.02244	898.41758	-405.49086	-274.71128	949.57836	-333.91873	-235.45702	1397.84750	-274.53001	-200.36641	1359.43248	-119.44275	-156.22518	1377.86770	-423.16577	-111.74859	1344.49145	-242.87140	-106.27701	1343.51547	-286.32534	-213.71912	1231.42783	-54.11814	-305.61069	1051.03086	-130.07581	-306.76998	1059.35036	-54.18749	-303.88000	936.89451	-19.66711	-316.69034	831.85027	-10.66592	-352.63332	842.89337	-6.03420	-101.73664	1245.77408	-493.96474	-118.21736	1037.22778	-474.93633	-104.23582	1060.98234	-542.11581	-10.00667	1017.91768	-556.17395	95.63013	943.70401	-540.71939	79.59237	921.71689	-558.97956	-174.93544	827.17098	-183.31164	-175.57112	826.82656	-372.68153	-153.30886	819.72682	-199.92428	-158.03345	833.14955	-360.33556	
3	0.02000000	-3.10220	453.00942	-136.15948	74.34172	366.96180	-156.70993	115.72704	90.35621	-197.76211	91.40879	44.03910	-255.52302	240.30692	86.11108	-164.77576	266.63649	126.10271	-199.78983	-294.13147	457.14151	-421.89967	-291.19792	346.46509	-373.83477	-474.64194	102.01643	-364.99401	-529.61254	76.93325	-315.35356	-369.32479	33.99131	-371.43003	-326.99228	47.54592	-319.41723	106.55005	261.16085	-178.47268	18.01159	339.08818	-113.53090	34.23452	231.88932	-146.00486	-335.80138	379.27260	-441.26744	-390.59364	271.34168	-442.70520	-45.92962	760.07359	-123.02513	1.97728	661.02418	-125.72577	-31.88706	616.44052	-84.64825	-144.25277	712.46413	-82.18774	-88.50555	607.95644	-85.81831	-135.17921	721.12289	-448.03806	-164.21135	587.11415	-434.91084	-240.51646	744.05894	-478.93971	-271.70567	609.08366	-458.92484	-68.66854	898.48937	-160.61503	-256.46294	938.62978	-218.21290	-70.60189	896.01393	-405.16248	-259.79808	947.30751	-333.14353	-222.41753	1395.75243	-273.28328	-186.88518	1357.33416	-118.27055	-143.40281	1376.08990	-422.17575	-98.26199	1342.77170	-241.86566	-92.85929	1341.80520	-285.35263	-199.93344	1229.16393	-53.04112	-291.38715	1048.61261	-129.03196	-292.77977	1057.07300	-53.17718	-290.28101	934.75679	-18.55548	-303.40046	829.70984	-9.55062	-339.26280	840.84756	-4.97754	-89.42779	1243.95073	-493.30436	-106.11583	1035.33050	-474.59133	-92.04063	1059.20582	-541.69701	2.64185	1016.82595	-555.31449	108.78685	943.54241	-539.32450	92.95085	921.41450	-557.68768	-159.68081	826.13036	-182.06586	-160.79754	824.48454	-371.42970	-138.41992	818.58316	-198.53288	-143.08547	830.70697	-359.42081	
4	0.03000000	11.27204	452.00114	-136.96179	87.10448	364.29149	-158.54482	122.25307	87.51934	-199.32319	95.57346	44.16319	-257.41252	246.00286	78.70622	-166.64099	274.74882	116.89818	-201.87882	-282.55326	456.09495	-420.74029	-282.08780	344.79303	-373.47839	-472.19549	105.25256	-365.59773	-527.72075	81.57822	-316.17145	-368.85038	33.87414	-371.38365	-325.91794	46.71546	-319.55505	117.35796	257.96559	-180.55175	31.10953	337.38935	-114.44768	44.89714	229.91565	-146.96652	-325.98427	379.46598	-440.35795	-383.97503	273.16444	-442.34427	-30.28291	759.33355	-121.02134	17.20378	659.95939	-124.42240	-17.01578	615.15843	-84.12775	-129.01149	711.87985	-81.75921	-73.73389	607.02021	-85.61419	-122.02716	719.20909	-447.16873	-151.63015	585.08794	-434.09005	-227.35390	742.54361	-477.43521	-259.27003	607.76224	-457.07234	-53.16672	897.80816	-159.71517	-241.39037	937.51288	-217.62618	-55.96378	893.77181	-404.75796	-244.72134	945.29338	-332.38894	-209.34009	1393.84765	-271.97800	-173.36187	1355.45736	-117.02637	-130.55742	1374.49185	-421.17027	-84.74543	1341.32397	-240.80823	-79.46304	1340.39089	-284.35336	-186.01984	1227.09546	-51.91850	-276.92437	1046.31614	-127.96213	-278.54482	1054.89305	-52.13857	-276.29487	932.71281	-17.43698	-289.55247	827.67377	-8.39316	-325.40734	838.83260	-3.91814	-77.13149	1242.23166	-492.59253	-94.21704	1033.55824	-474.16544	-80.07152	1057.52275	-541.19507	14.96837	1015.69741	-554.42855	121.53752	943.16221	-537.93364	105.88149	920.90548	-556.40002	-144.30621	825.27646	-180.77811	-145.86150	822.34948	-370.12983	-123.33402	817.57027	-197.12161	-128.01307	828.49078	-358.44534	
